<?xml version="1.0" encoding="UTF-8"?>
<!DOCTYPE svg PUBLIC "-//W3C//DTD SVG 1.1//EN" "http://www.w3.org/Graphics/SVG/1.1/DTD/svg11.dtd">
<svg xmlns="http://www.w3.org/2000/svg" xmlns:xlink="http://www.w3.org/1999/xlink" version="1.1" width="982px" height="832px" viewBox="-0.5 -0.5 982 832"><defs><clipPath id="mx-clip-1-31-30-30-0"><rect x="1" y="31" width="30" height="30"/></clipPath><clipPath id="mx-clip-37-31-184-30-0"><rect x="37" y="31" width="184" height="30"/></clipPath><clipPath id="mx-clip-37-61-184-30-0"><rect x="37" y="61" width="184" height="30"/></clipPath><clipPath id="mx-clip-37-91-184-30-0"><rect x="37" y="91" width="184" height="30"/></clipPath><clipPath id="mx-clip-37-121-184-30-0"><rect x="37" y="121" width="184" height="30"/></clipPath><clipPath id="mx-clip-37-151-184-30-0"><rect x="37" y="151" width="184" height="30"/></clipPath><clipPath id="mx-clip-381-31-30-30-0"><rect x="381" y="31" width="30" height="30"/></clipPath><clipPath id="mx-clip-417-31-124-30-0"><rect x="417" y="31" width="124" height="30"/></clipPath><clipPath id="mx-clip-381-61-30-30-0"><rect x="381" y="61" width="30" height="30"/></clipPath><clipPath id="mx-clip-417-61-124-30-0"><rect x="417" y="61" width="124" height="30"/></clipPath><clipPath id="mx-clip-417-91-124-30-0"><rect x="417" y="91" width="124" height="30"/></clipPath><clipPath id="mx-clip-417-121-124-30-0"><rect x="417" y="121" width="124" height="30"/></clipPath><clipPath id="mx-clip-261-271-30-30-0"><rect x="261" y="271" width="30" height="30"/></clipPath><clipPath id="mx-clip-297-271-164-30-0"><rect x="297" y="271" width="164" height="30"/></clipPath><clipPath id="mx-clip-261-301-30-30-0"><rect x="261" y="301" width="30" height="30"/></clipPath><clipPath id="mx-clip-297-301-164-30-0"><rect x="297" y="301" width="164" height="30"/></clipPath><clipPath id="mx-clip-297-331-164-30-0"><rect x="297" y="331" width="164" height="30"/></clipPath><clipPath id="mx-clip-297-361-164-30-0"><rect x="297" y="361" width="164" height="30"/></clipPath><clipPath id="mx-clip-297-391-164-30-0"><rect x="297" y="391" width="164" height="30"/></clipPath><clipPath id="mx-clip-541-271-30-30-0"><rect x="541" y="271" width="30" height="30"/></clipPath><clipPath id="mx-clip-577-271-164-30-0"><rect x="577" y="271" width="164" height="30"/></clipPath><clipPath id="mx-clip-541-301-30-30-0"><rect x="541" y="301" width="30" height="30"/></clipPath><clipPath id="mx-clip-577-301-164-30-0"><rect x="577" y="301" width="164" height="30"/></clipPath><clipPath id="mx-clip-577-331-164-30-0"><rect x="577" y="331" width="164" height="30"/></clipPath><clipPath id="mx-clip-577-361-164-40-0"><rect x="577" y="361" width="164" height="40"/></clipPath><clipPath id="mx-clip-821-271-30-30-0"><rect x="821" y="271" width="30" height="30"/></clipPath><clipPath id="mx-clip-857-271-124-30-0"><rect x="857" y="271" width="124" height="30"/></clipPath><clipPath id="mx-clip-821-301-30-30-0"><rect x="821" y="301" width="30" height="30"/></clipPath><clipPath id="mx-clip-857-301-124-30-0"><rect x="857" y="301" width="124" height="30"/></clipPath><clipPath id="mx-clip-857-331-124-30-0"><rect x="857" y="331" width="124" height="30"/></clipPath><clipPath id="mx-clip-541-671-30-40-0"><rect x="541" y="671" width="30" height="40"/></clipPath><clipPath id="mx-clip-577-671-164-40-0"><rect x="577" y="671" width="164" height="40"/></clipPath><clipPath id="mx-clip-541-711-30-30-0"><rect x="541" y="711" width="30" height="30"/></clipPath><clipPath id="mx-clip-577-711-164-30-0"><rect x="577" y="711" width="164" height="30"/></clipPath><clipPath id="mx-clip-577-741-164-30-0"><rect x="577" y="741" width="164" height="30"/></clipPath><clipPath id="mx-clip-577-771-164-30-0"><rect x="577" y="771" width="164" height="30"/></clipPath><clipPath id="mx-clip-541-471-30-40-0"><rect x="541" y="471" width="30" height="40"/></clipPath><clipPath id="mx-clip-577-471-164-40-0"><rect x="577" y="471" width="164" height="40"/></clipPath><clipPath id="mx-clip-541-511-30-30-0"><rect x="541" y="511" width="30" height="30"/></clipPath><clipPath id="mx-clip-577-511-164-30-0"><rect x="577" y="511" width="164" height="30"/></clipPath><clipPath id="mx-clip-577-541-164-30-0"><rect x="577" y="541" width="164" height="30"/></clipPath><clipPath id="mx-clip-577-571-164-30-0"><rect x="577" y="571" width="164" height="30"/></clipPath></defs><g><path d="M 222.32 16.2 L 242.32 16.2 Q 252.32 16.2 262.32 16.12 L 340.52 15.48 Q 350.52 15.4 360.52 15.4 L 380.52 15.4" fill="none" stroke="#000000" stroke-miterlimit="10" pointer-events="stroke"/><path d="M 226.32 12.2 L 226.32 20.2 M 230.32 12.2 L 230.32 20.2" fill="none" stroke="#000000" stroke-miterlimit="10" pointer-events="all"/><path d="M 372.52 19.4 L 372.52 11.4 M 380.52 11.4 L 372.52 15.4 L 380.52 19.4" fill="none" stroke="#000000" stroke-miterlimit="10" pointer-events="all"/><path d="M 221 31 L 221 1 Q 221 1 221 1 L 1 1 Q 1 1 1 1 L 1 31" fill="#ffffff" stroke="#000000" stroke-width="2" stroke-miterlimit="10" pointer-events="all"/><path d="M 1 31 L 1 201 Q 1 201 1 201 L 221 201 Q 221 201 221 201 L 221 31" fill="none" stroke="#000000" stroke-width="2" stroke-miterlimit="10" pointer-events="none"/><path d="M 1 31 L 221 31" fill="none" stroke="#000000" stroke-width="2" stroke-miterlimit="10" pointer-events="none"/><g fill="#000000" font-family="Helvetica" pointer-events="none" text-anchor="middle" font-size="14px"><text x="110.5" y="21.5">User</text></g><path d="M 1 31 M 221 31 M 221 61 L 1 61" fill="none" stroke="#000000" stroke-miterlimit="10" pointer-events="none"/><path d="M 1 31 M 31 31 M 31 61 M 1 61" fill="none" stroke="#000000" stroke-miterlimit="10" pointer-events="none"/><g fill="#000000" font-family="Helvetica" font-weight="bold" pointer-events="none" clip-path="url(#mx-clip-1-31-30-30-0)" text-anchor="middle" font-size="12px"><text x="15.5" y="50.5">PK</text></g><path d="M 31 31 M 221 31 M 221 61 M 31 61" fill="none" stroke="#000000" stroke-miterlimit="10" pointer-events="none"/><g fill="#000000" font-family="Helvetica" font-weight="bold" text-decoration="underline" pointer-events="none" clip-path="url(#mx-clip-37-31-184-30-0)" font-size="12px"><text x="38.5" y="50.5">id: int</text></g><path d="M 1 61 M 221 61 M 221 91 M 1 91" fill="none" stroke="#000000" stroke-miterlimit="10" pointer-events="none"/><path d="M 1 61 M 31 61 M 31 91 M 1 91" fill="none" stroke="#000000" stroke-miterlimit="10" pointer-events="none"/><path d="M 31 61 M 221 61 M 221 91 M 31 91" fill="none" stroke="#000000" stroke-miterlimit="10" pointer-events="none"/><g fill="#000000" font-family="Helvetica" pointer-events="none" clip-path="url(#mx-clip-37-61-184-30-0)" font-size="12px"><text x="38.5" y="80.5">username: varchar</text></g><path d="M 1 91 M 221 91 M 221 121 M 1 121" fill="none" stroke="#000000" stroke-miterlimit="10" pointer-events="none"/><path d="M 1 91 M 31 91 M 31 121 M 1 121" fill="none" stroke="#000000" stroke-miterlimit="10" pointer-events="none"/><path d="M 31 91 M 221 91 M 221 121 M 31 121" fill="none" stroke="#000000" stroke-miterlimit="10" pointer-events="none"/><g fill="#000000" font-family="Helvetica" pointer-events="none" clip-path="url(#mx-clip-37-91-184-30-0)" font-size="12px"><text x="38.5" y="110.5">email: varchar</text></g><path d="M 1 121 M 221 121 M 221 151 M 1 151" fill="none" stroke="#000000" stroke-miterlimit="10" pointer-events="none"/><path d="M 1 121 M 31 121 M 31 151 M 1 151" fill="none" stroke="#000000" stroke-miterlimit="10" pointer-events="none"/><path d="M 31 121 M 221 121 M 221 151 M 31 151" fill="none" stroke="#000000" stroke-miterlimit="10" pointer-events="none"/><g fill="#000000" font-family="Helvetica" pointer-events="none" clip-path="url(#mx-clip-37-121-184-30-0)" font-size="12px"><text x="38.5" y="140.5">password: varchar</text></g><path d="M 1 151 M 221 151 M 221 181 M 1 181" fill="none" stroke="#000000" stroke-miterlimit="10" pointer-events="none"/><path d="M 1 151 M 31 151 M 31 181 M 1 181" fill="none" stroke="#000000" stroke-miterlimit="10" pointer-events="none"/><path d="M 31 151 M 221 151 M 221 181 M 31 181" fill="none" stroke="#000000" stroke-miterlimit="10" pointer-events="none"/><g fill="#000000" font-family="Helvetica" pointer-events="none" clip-path="url(#mx-clip-37-151-184-30-0)" font-size="12px"><text x="38.5" y="170.5">account_status: boolean</text></g><path d="M 541 31 L 541 1 Q 541 1 541 1 L 381 1 Q 381 1 381 1 L 381 31" fill="#ffffff" stroke="#000000" stroke-width="2" stroke-miterlimit="10" pointer-events="none"/><path d="M 381 31 L 381 161 Q 381 161 381 161 L 541 161 Q 541 161 541 161 L 541 31" fill="none" stroke="#000000" stroke-width="2" stroke-miterlimit="10" pointer-events="none"/><path d="M 381 31 L 541 31" fill="none" stroke="#000000" stroke-width="2" stroke-miterlimit="10" pointer-events="none"/><g fill="#000000" font-family="Helvetica" pointer-events="none" text-anchor="middle" font-size="14px"><text x="460.5" y="21.5">User_Attr</text></g><path d="M 381 31 M 541 31 M 541 61 L 381 61" fill="none" stroke="#000000" stroke-miterlimit="10" pointer-events="none"/><path d="M 381 31 M 411 31 M 411 61 M 381 61" fill="none" stroke="#000000" stroke-miterlimit="10" pointer-events="none"/><g fill="#000000" font-family="Helvetica" font-weight="bold" pointer-events="none" clip-path="url(#mx-clip-381-31-30-30-0)" text-anchor="middle" font-size="12px"><text x="395.5" y="50.5">PK</text></g><path d="M 411 31 M 541 31 M 541 61 M 411 61" fill="none" stroke="#000000" stroke-miterlimit="10" pointer-events="none"/><g fill="#000000" font-family="Helvetica" font-weight="bold" text-decoration="underline" pointer-events="none" clip-path="url(#mx-clip-417-31-124-30-0)" font-size="12px"><text x="418.5" y="50.5">id: int</text></g><path d="M 381 61 M 541 61 M 541 91 M 381 91" fill="none" stroke="#000000" stroke-miterlimit="10" pointer-events="none"/><path d="M 381 61 M 411 61 M 411 91 M 381 91" fill="none" stroke="#000000" stroke-miterlimit="10" pointer-events="none"/><g fill="#000000" font-family="Helvetica" pointer-events="none" clip-path="url(#mx-clip-381-61-30-30-0)" text-anchor="middle" font-size="12px"><text x="395.5" y="80.5">FK</text></g><path d="M 411 61 M 541 61 M 541 91 M 411 91" fill="none" stroke="#000000" stroke-miterlimit="10" pointer-events="none"/><g fill="#000000" font-family="Helvetica" pointer-events="none" clip-path="url(#mx-clip-417-61-124-30-0)" font-size="12px"><text x="418.5" y="80.5">user_id: int</text></g><path d="M 381 91 M 541 91 M 541 121 M 381 121" fill="none" stroke="#000000" stroke-miterlimit="10" pointer-events="none"/><path d="M 381 91 M 411 91 M 411 121 M 381 121" fill="none" stroke="#000000" stroke-miterlimit="10" pointer-events="none"/><path d="M 411 91 M 541 91 M 541 121 M 411 121" fill="none" stroke="#000000" stroke-miterlimit="10" pointer-events="none"/><g fill="#000000" font-family="Helvetica" pointer-events="none" clip-path="url(#mx-clip-417-91-124-30-0)" font-size="12px"><text x="418.5" y="110.5">key: string</text></g><path d="M 381 121 M 541 121 M 541 151 M 381 151" fill="none" stroke="#000000" stroke-miterlimit="10" pointer-events="none"/><path d="M 381 121 M 411 121 M 411 151 M 381 151" fill="none" stroke="#000000" stroke-miterlimit="10" pointer-events="none"/><path d="M 411 121 M 541 121 M 541 151 M 411 151" fill="none" stroke="#000000" stroke-miterlimit="10" pointer-events="none"/><g fill="#000000" font-family="Helvetica" pointer-events="none" clip-path="url(#mx-clip-417-121-124-30-0)" font-size="12px"><text x="418.5" y="140.5">value: varchar</text></g><path d="M 219.24 180.91 L 239.24 180.91 Q 249.24 180.91 249.24 190.91 L 249.24 206.37 Q 249.24 216.37 239.24 216.37 L 233.92 216.37 Q 228.6 216.37 228.6 226.37 L 228.6 241.83 Q 228.6 251.83 238.6 251.83 L 258.6 251.83" fill="none" stroke="#000000" stroke-miterlimit="10" pointer-events="none"/><path d="M 223.24 176.91 L 223.24 184.91 M 227.24 176.91 L 227.24 184.91" fill="none" stroke="#000000" stroke-miterlimit="10" pointer-events="none"/><path d="M 250.6 255.83 L 250.6 247.83 M 258.6 247.83 L 250.6 251.83 L 258.6 255.83" fill="none" stroke="#000000" stroke-miterlimit="10" pointer-events="none"/><path d="M 462 254.87 L 482 254.87 Q 492 254.87 499.5 256.73 L 503.25 257.67 Q 507 258.6 517 258.6 L 537 258.6" fill="none" stroke="#000000" stroke-miterlimit="10" pointer-events="none"/><path d="M 466 250.87 L 466 258.87 M 470 250.87 L 470 258.87" fill="none" stroke="#000000" stroke-miterlimit="10" pointer-events="none"/><ellipse cx="525" cy="258.6" rx="3" ry="3" fill="#ffffff" stroke="#000000" pointer-events="none"/><path d="M 537 254.6 L 529 258.6 L 537 262.6" fill="none" stroke="#000000" stroke-miterlimit="10" pointer-events="none"/><path d="M 743.4 259.24 L 763.4 259.24 Q 773.4 259.24 780.92 253.5 L 784.68 250.63 Q 788.44 247.76 798.44 247.76 L 818.44 247.76" fill="none" stroke="#000000" stroke-miterlimit="10" pointer-events="none"/><path d="M 747.4 255.24 L 747.4 263.24 M 751.4 255.24 L 751.4 263.24" fill="none" stroke="#000000" stroke-miterlimit="10" pointer-events="none"/><path d="M 810.44 251.76 L 810.44 243.76 M 818.44 243.76 L 810.44 247.76 L 818.44 251.76" fill="none" stroke="#000000" stroke-miterlimit="10" pointer-events="none"/><path d="M 461 271 L 461 241 Q 461 241 461 241 L 261 241 Q 261 241 261 241 L 261 271" fill="#ffffff" stroke="#000000" stroke-width="2" stroke-miterlimit="10" pointer-events="none"/><path d="M 261 271 L 261 431 Q 261 431 261 431 L 461 431 Q 461 431 461 431 L 461 271" fill="none" stroke="#000000" stroke-width="2" stroke-miterlimit="10" pointer-events="none"/><path d="M 261 271 L 461 271" fill="none" stroke="#000000" stroke-width="2" stroke-miterlimit="10" pointer-events="none"/><g fill="#000000" font-family="Helvetica" pointer-events="none" text-anchor="middle" font-size="14px"><text x="360.5" y="261.5">Poll</text></g><path d="M 261 271 M 461 271 M 461 301 L 261 301" fill="none" stroke="#000000" stroke-miterlimit="10" pointer-events="none"/><path d="M 261 271 M 291 271 M 291 301 M 261 301" fill="none" stroke="#000000" stroke-miterlimit="10" pointer-events="none"/><g fill="#000000" font-family="Helvetica" font-weight="bold" pointer-events="none" clip-path="url(#mx-clip-261-271-30-30-0)" text-anchor="middle" font-size="12px"><text x="275.5" y="290.5">PK</text></g><path d="M 291 271 M 461 271 M 461 301 M 291 301" fill="none" stroke="#000000" stroke-miterlimit="10" pointer-events="none"/><g fill="#000000" font-family="Helvetica" font-weight="bold" text-decoration="underline" pointer-events="none" clip-path="url(#mx-clip-297-271-164-30-0)" font-size="12px"><text x="298.5" y="290.5">id: int</text></g><path d="M 261 301 M 461 301 M 461 331 M 261 331" fill="none" stroke="#000000" stroke-miterlimit="10" pointer-events="none"/><path d="M 261 301 M 291 301 M 291 331 M 261 331" fill="none" stroke="#000000" stroke-miterlimit="10" pointer-events="none"/><g fill="#000000" font-family="Helvetica" pointer-events="none" clip-path="url(#mx-clip-261-301-30-30-0)" text-anchor="middle" font-size="12px"><text x="275.5" y="320.5">FK</text></g><path d="M 291 301 M 461 301 M 461 331 M 291 331" fill="none" stroke="#000000" stroke-miterlimit="10" pointer-events="none"/><g fill="#000000" font-family="Helvetica" pointer-events="none" clip-path="url(#mx-clip-297-301-164-30-0)" font-size="12px"><text x="298.5" y="320.5">user_id: int</text></g><path d="M 261 331 M 461 331 M 461 361 M 261 361" fill="none" stroke="#000000" stroke-miterlimit="10" pointer-events="none"/><path d="M 261 331 M 291 331 M 291 361 M 261 361" fill="none" stroke="#000000" stroke-miterlimit="10" pointer-events="none"/><path d="M 291 331 M 461 331 M 461 361 M 291 361" fill="none" stroke="#000000" stroke-miterlimit="10" pointer-events="none"/><g fill="#000000" font-family="Helvetica" pointer-events="none" clip-path="url(#mx-clip-297-331-164-30-0)" font-size="12px"><text x="298.5" y="350.5">name: varchar</text></g><path d="M 261 361 M 461 361 M 461 391 M 261 391" fill="none" stroke="#000000" stroke-miterlimit="10" pointer-events="none"/><path d="M 261 361 M 291 361 M 291 391 M 261 391" fill="none" stroke="#000000" stroke-miterlimit="10" pointer-events="none"/><path d="M 291 361 M 461 361 M 461 391 M 291 391" fill="none" stroke="#000000" stroke-miterlimit="10" pointer-events="none"/><g fill="#000000" font-family="Helvetica" pointer-events="none" clip-path="url(#mx-clip-297-361-164-30-0)" font-size="12px"><text x="298.5" y="380.5">start_date: Date</text></g><path d="M 261 391 M 461 391 M 461 421 M 261 421" fill="none" stroke="#000000" stroke-miterlimit="10" pointer-events="none"/><path d="M 261 391 M 291 391 M 291 421 M 261 421" fill="none" stroke="#000000" stroke-miterlimit="10" pointer-events="none"/><path d="M 291 391 M 461 391 M 461 421 M 291 421" fill="none" stroke="#000000" stroke-miterlimit="10" pointer-events="none"/><g fill="#000000" font-family="Helvetica" pointer-events="none" clip-path="url(#mx-clip-297-391-164-30-0)" font-size="12px"><text x="298.5" y="410.5">end_date: Date</text></g><path d="M 461.6 263.99 L 481.6 263.99 Q 491.6 263.99 492.42 273.96 L 506.78 447.67 Q 507.6 457.64 517.6 457.64 L 537.6 457.64" fill="none" stroke="#000000" stroke-miterlimit="10" pointer-events="none"/><path d="M 465.6 259.99 L 465.6 267.99 M 469.6 259.99 L 469.6 267.99" fill="none" stroke="#000000" stroke-miterlimit="10" pointer-events="none"/><ellipse cx="525.6" cy="457.64" rx="3" ry="3" fill="#ffffff" stroke="#000000" pointer-events="none"/><path d="M 537.6 453.64 L 529.6 457.64 L 537.6 461.64" fill="none" stroke="#000000" stroke-miterlimit="10" pointer-events="none"/><path d="M 741 271 L 741 241 Q 741 241 741 241 L 541 241 Q 541 241 541 241 L 541 271" fill="#ffffff" stroke="#000000" stroke-width="2" stroke-miterlimit="10" pointer-events="none"/><path d="M 541 271 L 541 401 Q 541 401 541 401 L 741 401 Q 741 401 741 401 L 741 271" fill="none" stroke="#000000" stroke-width="2" stroke-miterlimit="10" pointer-events="none"/><path d="M 541 271 L 741 271" fill="none" stroke="#000000" stroke-width="2" stroke-miterlimit="10" pointer-events="none"/><g fill="#000000" font-family="Helvetica" pointer-events="none" text-anchor="middle" font-size="14px"><text x="640.5" y="261.5">Multiple_Choice_Item</text></g><path d="M 541 271 M 741 271 M 741 301 L 541 301" fill="none" stroke="#000000" stroke-miterlimit="10" pointer-events="none"/><path d="M 541 271 M 571 271 M 571 301 M 541 301" fill="none" stroke="#000000" stroke-miterlimit="10" pointer-events="none"/><g fill="#000000" font-family="Helvetica" font-weight="bold" pointer-events="none" clip-path="url(#mx-clip-541-271-30-30-0)" text-anchor="middle" font-size="12px"><text x="555.5" y="290.5">PK</text></g><path d="M 571 271 M 741 271 M 741 301 M 571 301" fill="none" stroke="#000000" stroke-miterlimit="10" pointer-events="none"/><g fill="#000000" font-family="Helvetica" font-weight="bold" text-decoration="underline" pointer-events="none" clip-path="url(#mx-clip-577-271-164-30-0)" font-size="12px"><text x="578.5" y="290.5">id: int</text></g><path d="M 541 301 M 741 301 M 741 331 M 541 331" fill="none" stroke="#000000" stroke-miterlimit="10" pointer-events="none"/><path d="M 541 301 M 571 301 M 571 331 M 541 331" fill="none" stroke="#000000" stroke-miterlimit="10" pointer-events="none"/><g fill="#000000" font-family="Helvetica" pointer-events="none" clip-path="url(#mx-clip-541-301-30-30-0)" text-anchor="middle" font-size="12px"><text x="555.5" y="320.5">FK</text></g><path d="M 571 301 M 741 301 M 741 331 M 571 331" fill="none" stroke="#000000" stroke-miterlimit="10" pointer-events="none"/><g fill="#000000" font-family="Helvetica" pointer-events="none" clip-path="url(#mx-clip-577-301-164-30-0)" font-size="12px"><text x="578.5" y="320.5">poll_id: int</text></g><path d="M 541 331 M 741 331 M 741 361 M 541 361" fill="none" stroke="#000000" stroke-miterlimit="10" pointer-events="none"/><path d="M 541 331 M 571 331 M 571 361 M 541 361" fill="none" stroke="#000000" stroke-miterlimit="10" pointer-events="none"/><path d="M 571 331 M 741 331 M 741 361 M 571 361" fill="none" stroke="#000000" stroke-miterlimit="10" pointer-events="none"/><g fill="#000000" font-family="Helvetica" pointer-events="none" clip-path="url(#mx-clip-577-331-164-30-0)" font-size="12px"><text x="578.5" y="350.5">pos: int</text></g><path d="M 541 361 M 741 361 M 741 401 M 541 401" fill="none" stroke="#000000" stroke-miterlimit="10" pointer-events="none"/><path d="M 541 361 M 571 361 M 571 401 M 541 401" fill="none" stroke="#000000" stroke-miterlimit="10" pointer-events="none"/><path d="M 571 361 M 741 361 M 741 401 M 571 401" fill="none" stroke="#000000" stroke-miterlimit="10" pointer-events="none"/><g fill="#000000" font-family="Helvetica" pointer-events="none" clip-path="url(#mx-clip-577-361-164-40-0)" font-size="12px"><text x="578.5" y="385.5">question: varchar</text></g><path d="M 981 271 L 981 241 Q 981 241 981 241 L 821 241 Q 821 241 821 241 L 821 271" fill="#ffffff" stroke="#000000" stroke-width="2" stroke-miterlimit="10" pointer-events="none"/><path d="M 821 271 L 821 371 Q 821 371 821 371 L 981 371 Q 981 371 981 371 L 981 271" fill="none" stroke="#000000" stroke-width="2" stroke-miterlimit="10" pointer-events="none"/><path d="M 821 271 L 981 271" fill="none" stroke="#000000" stroke-width="2" stroke-miterlimit="10" pointer-events="none"/><g fill="#000000" font-family="Helvetica" pointer-events="none" text-anchor="middle" font-size="14px"><text x="900.5" y="261.5">Answers</text></g><path d="M 821 271 M 981 271 M 981 301 L 821 301" fill="none" stroke="#000000" stroke-miterlimit="10" pointer-events="none"/><path d="M 821 271 M 851 271 M 851 301 M 821 301" fill="none" stroke="#000000" stroke-miterlimit="10" pointer-events="none"/><g fill="#000000" font-family="Helvetica" font-weight="bold" pointer-events="none" clip-path="url(#mx-clip-821-271-30-30-0)" text-anchor="middle" font-size="12px"><text x="835.5" y="290.5">PK</text></g><path d="M 851 271 M 981 271 M 981 301 M 851 301" fill="none" stroke="#000000" stroke-miterlimit="10" pointer-events="none"/><g fill="#000000" font-family="Helvetica" font-weight="bold" text-decoration="underline" pointer-events="none" clip-path="url(#mx-clip-857-271-124-30-0)" font-size="12px"><text x="858.5" y="290.5">id: int</text></g><path d="M 821 301 M 981 301 M 981 331 M 821 331" fill="none" stroke="#000000" stroke-miterlimit="10" pointer-events="none"/><path d="M 821 301 M 851 301 M 851 331 M 821 331" fill="none" stroke="#000000" stroke-miterlimit="10" pointer-events="none"/><g fill="#000000" font-family="Helvetica" pointer-events="none" clip-path="url(#mx-clip-821-301-30-30-0)" text-anchor="middle" font-size="12px"><text x="835.5" y="320.5">FK</text></g><path d="M 851 301 M 981 301 M 981 331 M 851 331" fill="none" stroke="#000000" stroke-miterlimit="10" pointer-events="none"/><g fill="#000000" font-family="Helvetica" pointer-events="none" clip-path="url(#mx-clip-857-301-124-30-0)" font-size="12px"><text x="858.5" y="320.5">poll_item_id: int</text></g><path d="M 821 331 M 981 331 M 981 361 M 821 361" fill="none" stroke="#000000" stroke-miterlimit="10" pointer-events="none"/><path d="M 821 331 M 851 331 M 851 361 M 821 361" fill="none" stroke="#000000" stroke-miterlimit="10" pointer-events="none"/><path d="M 851 331 M 981 331 M 981 361 M 851 361" fill="none" stroke="#000000" stroke-miterlimit="10" pointer-events="none"/><g fill="#000000" font-family="Helvetica" pointer-events="none" clip-path="url(#mx-clip-857-331-124-30-0)" font-size="12px"><text x="858.5" y="350.5">answer: varchar</text></g><path d="M 742.4 459.4 L 762.4 459.4 Q 772.4 459.4 773.25 449.44 L 788.39 270.85 Q 789.24 260.89 799.24 260.89 L 819.24 260.89" fill="none" stroke="#000000" stroke-miterlimit="10" pointer-events="none"/><path d="M 746.4 455.4 L 746.4 463.4 M 750.4 455.4 L 750.4 463.4" fill="none" stroke="#000000" stroke-miterlimit="10" pointer-events="none"/><path d="M 811.24 264.89 L 811.24 256.89 M 819.24 256.89 L 811.24 260.89 L 819.24 264.89" fill="none" stroke="#000000" stroke-miterlimit="10" pointer-events="none"/><path d="M 461 286 L 481 286 Q 491 286 491.45 295.99 L 507.35 649.41 Q 507.8 659.4 517.8 659.4 L 537.8 659.4" fill="none" stroke="#000000" stroke-miterlimit="10" pointer-events="none"/><path d="M 465 282 L 465 290 M 469 282 L 469 290" fill="none" stroke="#000000" stroke-miterlimit="10" pointer-events="none"/><ellipse cx="525.8" cy="659.4" rx="3" ry="3" fill="#ffffff" stroke="#000000" pointer-events="none"/><path d="M 537.8 655.4 L 529.8 659.4 L 537.8 663.4" fill="none" stroke="#000000" stroke-miterlimit="10" pointer-events="none"/><path d="M 741 671 L 741 641 Q 741 641 741 641 L 541 641 Q 541 641 541 641 L 541 671" fill="#ffffff" stroke="#000000" stroke-width="2" stroke-miterlimit="10" pointer-events="none"/><path d="M 541 671 L 541 801 Q 541 801 541 801 L 741 801 Q 741 801 741 801 L 741 671" fill="none" stroke="#000000" stroke-width="2" stroke-miterlimit="10" pointer-events="none"/><path d="M 541 671 L 741 671" fill="none" stroke="#000000" stroke-width="2" stroke-miterlimit="10" pointer-events="none"/><g fill="#000000" font-family="Helvetica" pointer-events="none" text-anchor="middle" font-size="14px"><text x="640.5" y="661.5">Open_Text_Item</text></g><path d="M 541 671 M 741 671 M 741 711 L 541 711" fill="none" stroke="#000000" stroke-miterlimit="10" pointer-events="none"/><path d="M 541 671 M 571 671 M 571 711 M 541 711" fill="none" stroke="#000000" stroke-miterlimit="10" pointer-events="none"/><g fill="#000000" font-family="Helvetica" font-weight="bold" pointer-events="none" clip-path="url(#mx-clip-541-671-30-40-0)" text-anchor="middle" font-size="12px"><text x="555.5" y="695.5">PK</text></g><path d="M 571 671 M 741 671 M 741 711 M 571 711" fill="none" stroke="#000000" stroke-miterlimit="10" pointer-events="none"/><g fill="#000000" font-family="Helvetica" font-weight="bold" text-decoration="underline" pointer-events="none" clip-path="url(#mx-clip-577-671-164-40-0)" font-size="12px"><text x="578.5" y="695.5">id: int</text></g><path d="M 541 711 M 741 711 M 741 741 M 541 741" fill="none" stroke="#000000" stroke-miterlimit="10" pointer-events="none"/><path d="M 541 711 M 571 711 M 571 741 M 541 741" fill="none" stroke="#000000" stroke-miterlimit="10" pointer-events="none"/><g fill="#000000" font-family="Helvetica" pointer-events="none" clip-path="url(#mx-clip-541-711-30-30-0)" text-anchor="middle" font-size="12px"><text x="555.5" y="730.5">FK</text></g><path d="M 571 711 M 741 711 M 741 741 M 571 741" fill="none" stroke="#000000" stroke-miterlimit="10" pointer-events="none"/><g fill="#000000" font-family="Helvetica" pointer-events="none" clip-path="url(#mx-clip-577-711-164-30-0)" font-size="12px"><text x="578.5" y="730.5">poll_id: int</text></g><path d="M 541 741 M 741 741 M 741 771 M 541 771" fill="none" stroke="#000000" stroke-miterlimit="10" pointer-events="none"/><path d="M 541 741 M 571 741 M 571 771 M 541 771" fill="none" stroke="#000000" stroke-miterlimit="10" pointer-events="none"/><path d="M 571 741 M 741 741 M 741 771 M 571 771" fill="none" stroke="#000000" stroke-miterlimit="10" pointer-events="none"/><g fill="#000000" font-family="Helvetica" pointer-events="none" clip-path="url(#mx-clip-577-741-164-30-0)" font-size="12px"><text x="578.5" y="760.5">pos: int</text></g><path d="M 541 771 M 741 771 M 741 801 M 541 801" fill="none" stroke="#000000" stroke-miterlimit="10" pointer-events="none"/><path d="M 541 771 M 571 771 M 571 801 M 541 801" fill="none" stroke="#000000" stroke-miterlimit="10" pointer-events="none"/><path d="M 571 771 M 741 771 M 741 801 M 571 801" fill="none" stroke="#000000" stroke-miterlimit="10" pointer-events="none"/><g fill="#000000" font-family="Helvetica" pointer-events="none" clip-path="url(#mx-clip-577-771-164-30-0)" font-size="12px"><text x="578.5" y="790.5">question: varchar</text></g><path d="M 541 801 M 741 801 M 741 831 M 541 831" fill="none" stroke="#000000" stroke-miterlimit="10" pointer-events="none"/><path d="M 541 801 M 571 801 M 571 831 M 541 831" fill="none" stroke="#000000" stroke-miterlimit="10" pointer-events="none"/><path d="M 571 801 M 741 801 M 741 831 M 571 831" fill="none" stroke="#000000" stroke-miterlimit="10" pointer-events="none"/><path d="M 741 471 L 741 441 Q 741 441 741 441 L 541 441 Q 541 441 541 441 L 541 471" fill="#ffffff" stroke="#000000" stroke-width="2" stroke-miterlimit="10" pointer-events="none"/><path d="M 541 471 L 541 601 Q 541 601 541 601 L 741 601 Q 741 601 741 601 L 741 471" fill="none" stroke="#000000" stroke-width="2" stroke-miterlimit="10" pointer-events="none"/><path d="M 541 471 L 741 471" fill="none" stroke="#000000" stroke-width="2" stroke-miterlimit="10" pointer-events="none"/><g fill="#000000" font-family="Helvetica" pointer-events="none" text-anchor="middle" font-size="14px"><text x="640.5" y="461.5">Quiz_Item</text></g><path d="M 541 471 M 741 471 M 741 511 L 541 511" fill="none" stroke="#000000" stroke-miterlimit="10" pointer-events="none"/><path d="M 541 471 M 571 471 M 571 511 M 541 511" fill="none" stroke="#000000" stroke-miterlimit="10" pointer-events="none"/><g fill="#000000" font-family="Helvetica" font-weight="bold" pointer-events="none" clip-path="url(#mx-clip-541-471-30-40-0)" text-anchor="middle" font-size="12px"><text x="555.5" y="495.5">PK</text></g><path d="M 571 471 M 741 471 M 741 511 M 571 511" fill="none" stroke="#000000" stroke-miterlimit="10" pointer-events="none"/><g fill="#000000" font-family="Helvetica" font-weight="bold" text-decoration="underline" pointer-events="none" clip-path="url(#mx-clip-577-471-164-40-0)" font-size="12px"><text x="578.5" y="495.5">id: int</text></g><path d="M 541 511 M 741 511 M 741 541 M 541 541" fill="none" stroke="#000000" stroke-miterlimit="10" pointer-events="none"/><path d="M 541 511 M 571 511 M 571 541 M 541 541" fill="none" stroke="#000000" stroke-miterlimit="10" pointer-events="none"/><g fill="#000000" font-family="Helvetica" pointer-events="none" clip-path="url(#mx-clip-541-511-30-30-0)" text-anchor="middle" font-size="12px"><text x="555.5" y="530.5">FK</text></g><path d="M 571 511 M 741 511 M 741 541 M 571 541" fill="none" stroke="#000000" stroke-miterlimit="10" pointer-events="none"/><g fill="#000000" font-family="Helvetica" pointer-events="none" clip-path="url(#mx-clip-577-511-164-30-0)" font-size="12px"><text x="578.5" y="530.5">poll_id: int</text></g><path d="M 541 541 M 741 541 M 741 571 M 541 571" fill="none" stroke="#000000" stroke-miterlimit="10" pointer-events="none"/><path d="M 541 541 M 571 541 M 571 571 M 541 571" fill="none" stroke="#000000" stroke-miterlimit="10" pointer-events="none"/><path d="M 571 541 M 741 541 M 741 571 M 571 571" fill="none" stroke="#000000" stroke-miterlimit="10" pointer-events="none"/><g fill="#000000" font-family="Helvetica" pointer-events="none" clip-path="url(#mx-clip-577-541-164-30-0)" font-size="12px"><text x="578.5" y="560.5">pos: int</text></g><path d="M 541 571 M 741 571 M 741 601 M 541 601" fill="none" stroke="#000000" stroke-miterlimit="10" pointer-events="none"/><path d="M 541 571 M 571 571 M 571 601 M 541 601" fill="none" stroke="#000000" stroke-miterlimit="10" pointer-events="none"/><path d="M 571 571 M 741 571 M 741 601 M 571 601" fill="none" stroke="#000000" stroke-miterlimit="10" pointer-events="none"/><g fill="#000000" font-family="Helvetica" pointer-events="none" clip-path="url(#mx-clip-577-571-164-30-0)" font-size="12px"><text x="578.5" y="590.5">question: varchar</text></g></g></svg>